<svg xmlns="http://www.w3.org/2000/svg" width="70.91" height="78.97" viewBox="0 0 70.91 78.97">
  <metadata><?xpacket begin="﻿" id="W5M0MpCehiHzreSzNTczkc9d"?>
<x:xmpmeta xmlns:x="adobe:ns:meta/" x:xmptk="Adobe XMP Core 5.6-c138 79.159824, 2016/09/14-01:09:01        ">
   <rdf:RDF xmlns:rdf="http://www.w3.org/1999/02/22-rdf-syntax-ns#">
      <rdf:Description rdf:about=""/>
   </rdf:RDF>
</x:xmpmeta>
                                                                                                    
                                                                                                    
                                                                                                    
                                                                                                    
                                                                                                    
                                                                                                    
                                                                                                    
                                                                                                    
                                                                                                    
                                                                                                    
                                                                                                    
                                                                                                    
                                                                                                    
                                                                                                    
                                                                                                    
                                                                                                    
                                                                                                    
                                                                                                    
                                                                                                    
                                                                                                    
                           
<?xpacket end="w"?></metadata>
<defs>
    <style>
      .cls-1 {
        fill: lime;
        fill-rule: evenodd;
      }
    </style>
  </defs>
  <path id="hand" class="cls-1" d="M2040.85,1733.94c-7.08-4.83-22.59-9.36-28.93-11.09l-1.3-.36-0.16-1.32-2.48-20.41v-0.2a6.521,6.521,0,0,0-13.04-.2v12.19l-0.2,29.18v3.97l-3.2-2.44-3.01-2.32h-0.05a14.744,14.744,0,0,0-9.09-3.56,10.884,10.884,0,0,0-8.26,3.85,0.47,0.47,0,0,0,0,.61c0.87,1.27,22.37,30.96,46.91,31.11h0.27c7.55,0,13.42-2.42,17.43-7.21,9.24-11.06,5.49-30.66,5.32-31.49A0.452,0.452,0,0,0,2040.85,1733.94Z" transform="translate(-1971.03 -1694)"/>
</svg>
