<?xml version="1.0" encoding="utf-8"?>
<!-- Generator: Adobe Illustrator 19.0.0, SVG Export Plug-In . SVG Version: 6.00 Build 0)  -->
<svg version="1.1" id="图层_1" xmlns="http://www.w3.org/2000/svg" xmlns:xlink="http://www.w3.org/1999/xlink" x="0px" y="0px"
	 viewBox="0 0 737.01 274.96" style="enable-background:new 0 0 737.01 274.96;" xml:space="preserve">
<style type="text/css">
	.st0{fill:#040000;stroke:#000000;stroke-miterlimit:10;}
	.st1{fill:#0A0203;stroke:#000000;stroke-miterlimit:10;}
	.st2{fill:#060101;stroke:#000000;stroke-miterlimit:10;}
	.st3{fill:#070102;stroke:#000000;stroke-miterlimit:10;}
	.st4{fill:#050000;stroke:#000000;stroke-miterlimit:10;}
</style>
<g id="XMLID_39_">
	<polygon id="XMLID_42_" class="st0" points="186.503,179.536 114.56,255.368 114.56,97.871 186.503,22.039 	"/>
	<polygon id="XMLID_41_" class="st0" points="119.554,258.193 190.002,183.657 228.276,183.657 159.249,258.193 	"/>
	<rect id="XMLID_40_" x="192.007" y="17.826" class="st1" width="38.484" height="160.738"/>
</g>
<g id="XMLID_33_">
	<polygon id="XMLID_38_" class="st1" points="422.315,181.71 378.66,181.71 324.961,27.179 368.616,27.179 	"/>
	<polyline id="XMLID_37_" class="st2" points="382.29,181.71 425.945,181.71 479.645,27.179 435.99,27.179 402.159,124.533 	"/>
	<polygon id="XMLID_36_" class="st3" points="374.841,183.449 311.826,258.589 255.929,105.024 321.218,29.883 	"/>
	<polygon id="XMLID_35_" class="st4" points="363.418,258.911 316.848,258.911 378.564,184.8 425.134,184.8 	"/>
	<polygon id="XMLID_34_" class="st4" points="402.081,112.943 392.375,81.072 389.673,72.379 429.849,32.587 	"/>
</g>
<g id="XMLID_29_">
	<polygon id="XMLID_32_" class="st0" points="572.155,180.117 500.212,255.949 500.212,98.452 572.155,22.62 	"/>
	<polygon id="XMLID_31_" class="st0" points="505.206,258.773 575.653,184.238 613.927,184.238 544.901,258.773 	"/>
	<rect id="XMLID_30_" x="577.659" y="18.407" class="st1" width="38.484" height="160.738"/>
</g>
</svg>
